PathFileType	4	(X/Y/Z)	Kaydara																																																																																																																									
DataRate	CameraRate	NumFrames	NumMarkers	Units	OrigDataRate	OrigDataStartFrame	OrigNumFrames																																																																																																																					
30	30	8	41	mm	30	145	266																																																																																																																					
Frame#	Time	SALE_LFHD			SALE_RFHD			SALE_LBHD			SALE_RBHD			SALE_LFTShould			SALE_RFTShould			SALE_LRRShould			SALE_RRRShould			SALE_T10			SALE_STRN			SALE_TRUN			SALE_LSHO			SALE_LUPA			SALE_LELB			SALE_LFRM			SALE_LWRA			SALE_LWRB			SALE_LFIN			SALE_RSHO			SALE_RUPA			SALE_RELB			SALE_RFRM			SALE_RWRB			SALE_RFIN			SALE_LFWT			SALE_RFWT			SALE_LBWT			SALE_RBWT			SALE_LTHI			SALE_LKNE			SALE_RWRA			SALE_LSHN			SALE_LANK			SALE_LHEE			SALE_LTOE			SALE_RTHI			SALE_RKNE			SALE_RSHN			SALE_RANK			SALE_RHEE			SALE_RTOE		
		X1	Y1	Z1	X2	Y2	Z2	X3	Y3	Z3	X4	Y4	Z4	X5	Y5	Z5	X6	Y6	Z6	X7	Y7	Z7	X8	Y8	Z8	X9	Y9	Z9	X10	Y10	Z10	X11	Y11	Z11	X12	Y12	Z12	X13	Y13	Z13	X14	Y14	Z14	X15	Y15	Z15	X16	Y16	Z16	X17	Y17	Z17	X18	Y18	Z18	X19	Y19	Z19	X20	Y20	Z20	X21	Y21	Z21	X22	Y22	Z22	X23	Y23	Z23	X24	Y24	Z24	X25	Y25	Z25	X26	Y26	Z26	X27	Y27	Z27	X28	Y28	Z28	X29	Y29	Z29	X30	Y30	Z30	X31	Y31	Z31	X32	Y32	Z32	X33	Y33	Z33	X34	Y34	Z34	X35	Y35	Z35	X36	Y36	Z36	X37	Y37	Z37	X38	Y38	Z38	X39	Y39	Z39	X40	Y40	Z40	X41	Y41	Z41
																																																																																																																												
100	4.8	258.79444	1627.94785	-1006.71867	128.48948	1618.29437	-1017.35161	266.75205	1621.0379	-1138.2692	141.55706	1610.69977	-1142.29172	283.15044	1358.9212	-1063.15025	143.81048	1361.72241	-1065.43106	283.27335	1424.25873	-1171.26305	131.72129	1434.33167	-1166.81961	202.58554	1281.66321	-1251.32408	205.89651	1285.0058	-1023.35358	199.19043	1196.46568	-989.02237	402.15424	1385.02502	-1124.53842	441.82034	1167.61002	-1130.63248	427.97695	1057.49405	-1147.88406	455.16998	953.67195	-1115.97031	388.41312	814.7879	-1055.43137	458.15105	808.42949	-1087.93396	450.10746	764.57207	-1041.88072	37.36081	1399.60388	-1126.19095	-0.66139	1174.35341	-1201.50345	-30.91905	1072.62474	-1163.18909	-24.48021	958.55324	-1172.79457	-48.75256	822.66869	-1125.24681	-64.62891	786.86203	-1069.83521	322.21794	967.83806	-1054.79782	48.01791	943.26408	-1079.09279	278.34423	1016.79825	-1231.09665	99.25156	1002.28821	-1248.68286	341.71547	659.51721	-1198.05687	310.58887	494.30138	-1112.05994	-9.1268	835.66994	-1063.37448	291.45025	296.07208	-1102.50694	274.07602	110.3557	-1137.0134	235.05653	63.82895	-1201.3253	233.35852	75.13458	-1004.57901	62.38681	668.66135	-1180.2803	59.72921	536.94206	-1029.41589	112.03063	350.44266	-1126.16249	75.15737	225.52347	-1354.03778	66.87793	96.34748	-1316.1618	133.7798	226.78093	-1439.74731
101	4.833	258.24499	1628.91663	-983.92448	128.07974	1618.8826	-994.82117	266.33303	1624.22668	-1115.44159	141.24323	1613.40683	-1119.80881	283.78088	1361.97647	-1042.9406	144.58836	1364.08203	-1046.25969	284.10904	1427.03033	-1150.95558	132.70562	1436.5744	-1147.85263	204.57758	1284.50958	-1232.09579	206.50713	1287.59201	-1004.08661	199.82649	1199.0033	-969.95514	402.84565	1388.974	-1103.39973	444.27773	1172.33345	-1103.47427	432.54559	1061.53145	-1117.91039	460.32616	958.94836	-1081.41098	394.39888	822.24243	-1014.73953	464.60304	815.21965	-1046.79131	457.04456	773.99979	-998.32092	38.22837	1401.93954	-1107.43584	0.53455	1176.53137	-1181.88156	-28.28925	1074.66827	-1141.74614	-21.06457	960.38658	-1150.33028	-42.77261	824.95155	-1100.91507	-54.56211	788.02742	-1044.75868	325.08423	967.56241	-1039.73389	49.90261	947.74643	-1059.98024	277.90556	1017.89337	-1214.88937	98.74092	1005.70107	-1230.50552	337.53674	660.78239	-1188.3638	308.82618	494.19418	-1103.98384	-0.44202	838.72635	-1040.85129	290.00235	295.60909	-1098.40462	273.29855	110.58237	-1136.77521	233.89896	63.50883	-1200.94025	233.41816	75.15507	-1004.63554	58.29655	673.36449	-1150.46928	65.44271	549.15749	-990.11116	115.60461	355.27618	-1073.9975	72.09977	210.38204	-1289.31427	62.83853	92.09606	-1232.55409	128.0949	199.38248	-1377.25525
102	4.867	257.35849	1629.21722	-960.78522	127.80077	1618.246	-971.80717	265.42929	1627.24838	-1092.34749	140.41147	1615.58929	-1096.80733	284.43586	1364.34402	-1022.86865	145.26594	1365.87799	-1026.44142	284.62727	1429.3103	-1130.67528	133.25775	1438.36639	-1127.75719	205.71627	1286.89697	-1212.52762	207.34182	1289.47464	-984.55017	201.12982	1200.70938	-950.65598	403.15895	1392.16156	-1082.98836	447.14565	1176.48308	-1078.4211	436.87016	1064.84917	-1089.7509	464.837	963.54691	-1048.3857	399.44405	830.34119	-974.16428	469.32285	821.70845	-1006.4653	462.72511	783.82629	-955.4142	38.88705	1403.56125	-1087.30782	1.9544	1178.71834	-1163.37555	-26.26327	1076.41617	-1122.89864	-18.10059	961.8129	-1129.7226	-37.41022	826.9545	-1077.35237	-46.00609	789.40956	-1020.57404	327.015	966.37657	-1024.94377	51.27092	951.80473	-1040.46509	277.34169	1018.62503	-1198.37891	97.97226	1008.91708	-1211.90033	332.47459	661.92108	-1178.68851	307.11319	493.77323	-1096.24565	6.32671	842.09785	-1018.92578	288.86429	295.0742	-1094.664	272.38152	110.81189	-1136.72058	233.2905	63.92232	-1201.36513	233.56821	75.22517	-1004.74167	53.20091	677.81013	-1121.73775	71.47153	560.95177	-955.57854	118.93013	358.96904	-1023.16742	67.73792	188.1127	-1217.44194	62.07331	82.79464	-1142.20825	120.3441	164.55362	-1306.10611
103	4.9	256.5863	1628.65723	-937.77153	127.18248	1616.92673	-948.55392	264.2067	1628.68164	-1069.36142	139.31857	1616.24298	-1073.66318	284.92249	1365.00931	-1003.13866	145.82741	1366.12335	-1005.63217	284.5026	1430.43533	-1110.12352	133.2912	1439.12079	-1106.53076	205.81957	1288.29208	-1192.56165	208.50279	1289.80026	-964.50905	203.04979	1200.53856	-931.66519	403.20251	1393.87512	-1062.9982	449.44633	1178.99704	-1055.17334	440.30895	1066.73195	-1063.74146	468.58147	966.95717	-1016.86462	403.5445	838.50136	-934.15436	473.0442	827.59743	-966.83975	467.038	793.13492	-913.46909	39.13115	1404.12079	-1065.90652	3.2592	1180.28282	-1144.76578	-25.17321	1077.19742	-1105.28526	-15.56412	962.21939	-1110.1619	-33.09285	827.82578	-1055.33081	-40.09435	790.13474	-998.14163	328.45234	964.87259	-1009.048	52.44352	954.41422	-1020.14481	276.44354	1018.78471	-1181.18813	96.88364	1011.21925	-1192.45216	328.13377	662.83012	-1168.162	305.73078	493.17131	-1088.41896	10.37221	844.64531	-997.20459	287.95254	294.42196	-1090.74997	271.53339	110.96647	-1136.68968	232.71862	63.97552	-1201.30661	233.58286	75.05727	-1004.64043	49.25413	681.62399	-1094.05289	76.93882	569.58221	-926.22986	122.03638	361.38626	-974.05228	64.68675	162.95206	-1137.44911	63.68515	73.70696	-1046.69838	113.16771	125.57214	-1225.38742
104	4.933	255.87906	1627.30515	-914.81834	126.42697	1614.70642	-925.13702	262.77859	1628.56049	-1046.42181	137.91682	1615.34409	-1050.24231	285.30552	1364.29672	-982.70988	146.06131	1365.02853	-984.09546	284.00627	1430.53391	-1089.33586	132.725	1438.70773	-1084.26643	204.83706	1288.53027	-1171.88004	209.57727	1288.60031	-944.03717	204.86694	1199.03633	-911.84212	403.03497	1393.93204	-1043.28796	450.81642	1180.01984	-1033.26721	443.10093	1067.15836	-1038.95134	471.29154	969.15504	-986.5963	406.52046	846.00372	-896.16684	475.55836	832.75345	-928.63403	470.14267	801.81664	-873.1971	38.98011	1403.46268	-1043.13263	3.39279	1180.57526	-1124.32617	-25.18694	1076.86646	-1086.51695	-14.39301	961.53404	-1090.37094	-30.90953	827.43858	-1034.25308	-37.90487	789.8233	-976.83418	330.02594	962.8788	-993.41797	53.38269	955.38322	-998.70026	275.01951	1018.40233	-1162.97333	95.17868	1012.18605	-1171.74995	325.54138	663.66974	-1156.50734	304.86126	492.42893	-1080.07523	10.99085	845.73685	-975.28305	287.51184	293.42655	-1086.73065	270.96939	111.14199	-1136.56952	231.77137	64.18004	-1202.02469	234.35387	75.09729	-1004.97627	47.46753	683.53134	-1068.99811	80.56774	573.88611	-902.28729	124.42721	362.2953	-929.0995	62.33677	139.43409	-1054.87244	67.8408	69.68292	-949.00078	107.13583	88.22761	-1136.62544
105	4.967	255.01474	1625.24796	-891.76567	125.5477	1611.88232	-901.28464	261.17107	1627.40204	-1023.35838	136.38532	1613.45367	-1026.56708	285.43613	1362.5885	-961.83151	146.13121	1362.83386	-961.87752	282.72736	1429.32861	-1068.16666	131.56576	1437.25113	-1060.95734	202.85255	1287.74643	-1150.38429	210.51138	1286.40442	-922.7623	206.3764	1196.64566	-891.07529	402.31617	1392.83661	-1023.65364	451.21872	1179.6666	-1011.9915	444.79813	1066.40808	-1015.29251	472.75021	970.33203	-957.82684	408.11008	852.43652	-861.30302	477.21264	837.17598	-892.73445	472.14455	809.86366	-835.61768	38.38144	1401.73676	-1019.02458	2.48198	1179.65973	-1101.95595	-26.44972	1075.54817	-1065.40726	-14.86804	960.01991	-1069.21623	-31.62107	826.08063	-1013.00194	-39.73314	788.47961	-955.74791	330.53852	960.84503	-974.32632	54.10898	954.52042	-976.16127	273.35041	1017.44812	-1143.41385	93.41537	1011.77032	-1149.26979	323.92845	664.38904	-1143.38547	304.39503	491.41918	-1070.75096	8.76	844.84215	-952.98897	287.3609	292.51385	-1081.82114	270.63339	111.38031	-1136.2455	231.22007	64.29971	-1202.14043	234.97263	74.92544	-1005.28122	47.43621	683.46924	-1047.32841	82.10876	573.76972	-882.64503	126.78157	364.03538	-886.8679	61.77185	122.66434	-967.36229	74.93501	68.79649	-852.36588	102.65885	60.22935	-1042.27913
106	5	254.00131	1622.40555	-868.47946	124.56587	1608.47198	-877.35199	259.39203	1625.36911	-1000.03815	134.42324	1610.84915	-1002.7079	285.21	1360.22751	-940.45059	145.85381	1360.23499	-938.69095	280.81289	1427.1965	-1046.43211	129.96417	1434.76166	-1037.14928	200.30186	1285.72723	-1128.11081	210.84763	1283.75778	-900.69283	207.42611	1194.00757	-869.05586	401.05972	1390.95291	-1003.73642	450.67818	1178.1218	-991.56036	444.9807	1064.77455	-992.94945	473.1234	970.46867	-931.48399	408.51856	857.40189	-829.02512	477.64988	840.57999	-860.24765	473.06892	816.56693	-801.65382	37.28629	1399.05945	-994.1658	0.47945	1177.46422	-1077.52518	-28.47501	1073.20313	-1041.70692	-17.0909	957.72949	-1046.37344	-34.57483	823.29849	-991.32645	-44.02639	785.92102	-934.73572	330.70156	958.30902	-953.9772	54.01345	951.86485	-953.72055	271.9212	1015.73013	-1122.11159	92.00695	1010.33043	-1126.04919	322.05826	664.84138	-1128.64639	304.23447	490.33863	-1059.991	5.52625	841.4241	-930.9935	287.28281	291.39633	-1076.16127	270.37119	111.64075	-1135.53329	230.77715	64.70075	-1202.04224	235.68356	74.7759	-1005.25276	47.12274	681.08932	-1028.41103	81.15753	570.05299	-865.97031	127.94199	367.33471	-847.47742	62.56174	116.06612	-880.20561	84.09746	70.25285	-758.31024	97.97602	49.17744	-948.78059
107	5.033	252.99704	1618.65204	-845.09117	123.58846	1604.46548	-853.10776	257.32918	1622.3851	-976.66634	132.48275	1607.60117	-978.50487	284.39589	1357.33047	-918.35793	145.05394	1356.95816	-914.94331	278.33282	1423.98773	-1024.39629	127.61109	1431.16562	-1013.13164	197.3489	1282.22198	-1104.93706	210.6801	1280.75195	-877.57668	207.88555	1191.00372	-845.77507	399.32423	1388.33786	-983.23097	449.26521	1175.72388	-971.42372	443.77407	1062.34871	-971.86409	472.16087	969.29352	-907.34398	407.88837	860.5159	-799.95361	476.71734	842.04346	-831.38268	473.07419	820.88165	-771.79871	35.67976	1395.31677	-969.19006	-2.20665	1173.74641	-1051.31836	-30.90975	1069.59999	-1015.28755	-20.58335	954.41353	-1022.11739	-39.04275	819.06158	-969.56459	-49.48255	781.98341	-913.39119	330.59895	955.06165	-931.40617	53.85602	948.39989	-929.20219	270.59116	1012.93167	-1098.83247	90.75715	1007.55486	-1101.47133	319.99218	665.10818	-1112.2261	303.84634	488.8884	-1047.90306	1.89861	835.56755	-909.50127	286.97372	290.04597	-1069.68208	269.92514	112.00326	-1134.27757	230.20906	65.51089	-1201.71761	236.0553	74.5341	-1005.16205	44.93862	677.20802	-1010.8371	76.55381	563.7719	-848.68225	128.45058	371.98112	-812.56645	65.23977	120.45667	-801.12617	94.87865	83.42842	-674.65858	97.59089	44.13043	-863.21068
